<svg xmlns="http://www.w3.org/2000/svg" viewBox="0 0 34.98 34.99"><defs><style>.cls-1{fill:#7adbd4;}</style></defs><title>instagram</title><g id="Layer_2" data-name="Layer 2"><g id="Layer_1-2" data-name="Layer 1"><path class="cls-1" d="M24.14,10.4H22.36a.42.42,0,0,0-.44.44v1.78a.42.42,0,0,0,.44.44h1.78a.42.42,0,0,0,.44-.44V10.84A.42.42,0,0,0,24.14,10.4Z"/><path class="cls-1" d="M17.49,21A3.55,3.55,0,1,0,14,17.49,3.56,3.56,0,0,0,17.49,21Z"/><path class="cls-1" d="M22.81,17.49a5.32,5.32,0,0,1-10.64,0,2.93,2.93,0,0,1,.09-.88H10.4v7.53a.42.42,0,0,0,.44.45h13.3a.42.42,0,0,0,.44-.45V16.61H22.72A2.93,2.93,0,0,1,22.81,17.49Z"/><path class="cls-1" d="M17.49,0A17.5,17.5,0,1,0,35,17.49,17.49,17.49,0,0,0,17.49,0Zm8.87,24.59a1.78,1.78,0,0,1-1.78,1.77H10.4a1.78,1.78,0,0,1-1.78-1.77V10.4A1.78,1.78,0,0,1,10.4,8.63H24.58a1.78,1.78,0,0,1,1.78,1.77Z"/></g></g></svg>