<svg xmlns="http://www.w3.org/2000/svg" xmlns:xlink="http://www.w3.org/1999/xlink" viewBox="0 0 420.8 438.64">
    <defs>
        <style>
            .cls-1 {
                isolation: isolate;
            }

            .cls-11,
            .cls-2,
            .cls-6 {
                fill: #7adbd4;
            }

            .cls-3 {
                fill: #221f1f;
            }

            .cls-4 {
                fill: #fff;
            }

            .cls-5 {
                mix-blend-mode: multiply;
                fill: url(#radial-gradient);
            }

            .cls-11,
            .cls-6 {
                font-size: 12.63px;
                font-family: SourceSansPro-Black, Source Sans Pro Black;
                font-weight: 800;
            }

            .cls-12,
            .cls-6 {
                letter-spacing: 0.3em;
            }

            .cls-7 {
                letter-spacing: 0.28em;
            }

            .cls-8 {
                letter-spacing: 0.29em;
            }

            .cls-9 {
                letter-spacing: 0.22em;
            }

            .cls-10 {
                letter-spacing: 0.3em;
            }

            .cls-11 {
                letter-spacing: 0.26em;
            }

            .cls-13 {
                letter-spacing: 0.29em;
            }
        </style>
        <radialGradient id="radial-gradient" cx="509.71" cy="5727.06" r="77"
            gradientTransform="translate(-823.08 -438.36) scale(2.01 0.15)" gradientUnits="userSpaceOnUse">
            <stop offset="0" stop-color="#8a8a8a" />
            <stop offset="0.02" stop-color="#8f8f8f" />
            <stop offset="0.23" stop-color="#b7b7b7" />
            <stop offset="0.44" stop-color="#d6d6d6" />
            <stop offset="0.64" stop-color="#ededed" />
            <stop offset="0.83" stop-color="#fafafa" />
            <stop offset="1" stop-color="#fff" />
        </radialGradient>
    </defs>
    <title>MintLogo</title>
    <g class="cls-1">
        <g id="Layer_2" data-name="Layer 2">
            <g id="Layer_1-2" data-name="Layer 1">
                <path class="cls-2"
                    d="M202.71,18.33A154.45,154.45,0,0,1,324.46,77.78h22.59a172.83,172.83,0,0,0-288.69,0H81A154.46,154.46,0,0,1,202.71,18.33Z" />
                <path class="cls-2"
                    d="M202.71,327.69A154.54,154.54,0,0,1,77.27,263.35h-22a172.88,172.88,0,0,0,295,0h-22A154.53,154.53,0,0,1,202.71,327.69Z" />
                <path class="cls-2"
                    d="M160.51,142.21q-11.62-9.87-25.61-9.88-22.26-.22-35.49,14.76a56.51,56.51,0,0,0-12.92-10.74q-7.15-3.79-18.88-4c-12.15,0-19.65,2.89-29.41,13.35-.8.86-1.63,4.38-1.63,4.38h0a22.56,22.56,0,0,0-6.21-10.35q-7.34-7.37-18.89-7.37H0v21.25H8.2c4.54-.12,7.07,1.9,7.64,6v72.46H37.76V189.35h.12V176.26q.73-9.67,6.51-15.07,6.28-6.3,16.23-6.3T77,161.19q6.3,6.19,6.3,18v52.84h21.89V179.23q0-11.85,6.52-18t16.34-6.3q9.94,0,16.23,6.3t6.3,18v52.84h21.91V171.5Q172,152.2,160.51,142.21Z" />
                <rect class="cls-2" x="192.42" y="133.74" width="21.9" height="98.32" />
                <path class="cls-2"
                    d="M286.78,132.33q-17.55,0-28.36,13.35H258V133.74h-21.9v98.33H258V179.23q0-11.85,6.2-18a20.74,20.74,0,0,1,15.56-6.3q9.47,0,15.47,6.3t6.09,18v52.84h21.9V171.5q-.53-19.31-11.65-29.29T286.78,132.33Z" />
                <path class="cls-2"
                    d="M382.13,151.09V133.74h-16V99.46h-21.9v34.28h-11v17.35h11v53.23q0,13.34,7.57,20.37,7.33,7.38,18.88,7.38h11.44V210.81h-8.2q-8,.21-7.79-8.36V151.09Z" />
                <rect class="cls-3" x="399.57" y="121.65" width="21.22" height="41.79" />
                <path class="cls-4"
                    d="M406,136.19l1.64-1.95a5.18,5.18,0,0,0,3.19,1.08c.55,0,.78-.15.78-.4v0c0-.26-.29-.41-1.27-.6-2-.42-3.85-1-3.85-2.94v0c0-1.74,1.36-3.08,3.88-3.08a6.31,6.31,0,0,1,4.13,1.26L413,131.56a4.83,4.83,0,0,0-2.74-.9c-.46,0-.67.17-.67.38v0c0,.25.26.4,1.22.59,2.33.42,3.9,1.11,3.9,3v0c0,1.91-1.58,3.09-4,3.09A7.06,7.06,0,0,1,406,136.19Z" />
                <path class="cls-4"
                    d="M406.75,139.15h4.47a4.49,4.49,0,0,1,3.29,1,2.88,2.88,0,0,1,.84,2.18v0a2.94,2.94,0,0,1-1.81,2.79l2.14,3.11h-3.49l-1.73-2.61h-.65v2.61h-3.06Zm4.38,4.35c.73,0,1.17-.33,1.17-.89v0c0-.59-.45-.87-1.16-.87h-1.33v1.79Z" />
                <path class="cls-4" d="M406.75,149.89h3.06v6.52h4.3V159h-7.36Z" />
                <polygon class="cls-3"
                    points="203.37 91.34 208.85 104.19 221.1 104.23 211.25 112.87 214.33 125.07 203.37 117.28 192.41 125.07 195.61 112.87 185.64 104.23 197.89 104.19 203.37 91.34" />
                <path class="cls-5"
                    d="M202.71,438.64c-85.6,0-155-5.21-155-11.64s69.39-11.63,155-11.63,155,5.21,155,11.63-69.38,11.64-155,11.64" />
                <text class="cls-6" transform="translate(137.12 272.44)">Y E<tspan class="cls-7" x="27.79" y="0">S
                    </tspan>
                    <tspan x="38.45" y="0">T</tspan>
                    <tspan class="cls-8" x="49.36" y="0">R</tspan>
                    <tspan class="cls-9" x="60.99" y="0">A</tspan>
                    <tspan class="cls-10" x="71.14" y="0">TÉGICA</tspan>
                </text><text class="cls-11" transform="translate(137.02 59.08)">C<tspan class="cls-12" x="10.69" y="0">
                        OMUNIC</tspan>
                    <tspan class="cls-13" x="80.34" y="0">A</tspan>
                    <tspan class="cls-12" x="91.38" y="0">CIÓN</tspan>
                    <tspan class="cls-12">
                        <tspan x="35.82" y="17.68">VIS</tspan>
                        <tspan class="cls-8" x="65.53" y="17.68">U</tspan>
                        <tspan x="77.69" y="17.68">AL</tspan>
                    </tspan>
                </text></g>
        </g>
    </g>
</svg>